<svg width="710" height="710" viewBox="0 0 710 710" xmlns="http://www.w3.org/2000/svg" xmlns:xlink="http://www.w3.org/1999/xlink"><defs><clipPath id="clip-1"><rect x="0" y="0" width="710" height="710" fill="none" stroke="none" stroke-width="8" stroke-linecap="butt" stroke-linejoin="miter" stroke-dasharray=""></rect></clipPath><radialGradient cx="351.3044" cy="307.2391" r="74.1493" gradientUnits="userSpaceOnUse" id="color-1"><stop offset="1" stop-color="#fcefdc"></stop><stop offset="0.4313" stop-color="#fcefdc"></stop></radialGradient></defs><g clip-path="url(#clip-1)" id="color-logo" fill="none" fill-rule="nonzero" stroke="none" stroke-width="none" stroke-linecap="none" stroke-linejoin="none" stroke-miterlimit="10" stroke-dasharray="none" stroke-dashoffset="0" font-family="none" font-weight="none" font-size="none" text-anchor="none" style="mix-blend-mode: normal"><rect x="0" y="0" width="710" height="710" fill="none" stroke="none" stroke-width="8" stroke-linecap="butt" stroke-linejoin="miter" stroke-dasharray=""></rect><path d="M7,355c0,-192.1951 155.8049,-348 348,-348c192.1951,0 348,155.8049 348,348c0,192.1951 -155.8049,348 -348,348c-192.1951,0 -348,-155.8049 -348,-348z" id="outer-circle" fill="#ffffff" stroke="#000000" stroke-width="8" stroke-linecap="butt" stroke-linejoin="miter" stroke-dasharray=""></path><path d="M17,355c0,-186.6722 151.3278,-338 338,-338c186.6722,0 338,151.3278 338,338c0,186.6722 -151.3278,338 -338,338c-186.6722,0 -338,-151.3278 -338,-338zM355,577c122.6072,0 222,-99.3928 222,-222c0,-122.6072 -99.3928,-222 -222,-222c-122.6072,0 -222,99.3928 -222,222c0,122.6072 99.3928,222 222,222z" id="inner-circle" fill="#313552" stroke="none" stroke-width="8" stroke-linecap="butt" stroke-linejoin="miter" stroke-dasharray=""></path><g id="lettering" stroke-linecap="round" stroke-linejoin="round"><g id="spores bar 1 1" fill="#ffffff" stroke="none" stroke-width="0" stroke-dasharray=""><path d="M120.2302,286.6048c-1.6195,5.2938 -4.3498,8.8367 -8.1908,10.6287c-3.841,1.792 -8.5739,1.8276 -14.1988,0.1069v0l-3.9705,-1.2146l3.1581,-10.3229l4.7646,1.4575c4.4999,1.3766 7.3268,0.1789 8.4807,-3.5929v0c0.5668,-1.8528 0.4511,-3.426 -0.3473,-4.7195c-0.7984,-1.2935 -2.4218,-2.3148 -4.8702,-3.0638v0c-2.9117,-0.8907 -5.6784,-1.0134 -8.3002,-0.3681c-2.6218,0.6453 -6.0344,2.2789 -10.2378,4.9007v0c-5.3471,3.2851 -9.8987,5.3301 -13.6548,6.1349c-3.7561,0.8048 -7.6525,0.5898 -11.6892,-0.645v0c-5.4925,-1.6802 -9.3192,-4.3705 -11.4799,-8.0708c-2.1607,-3.7003 -2.4313,-8.1974 -0.8117,-13.4912v0c1.5993,-5.2276 4.3144,-8.7209 8.1453,-10.4798c3.8309,-1.7589 8.5587,-1.778 14.1836,-0.0573v0l2.8786,0.8806l-3.1581,10.3229l-3.5734,-1.0931c-2.3823,-0.7288 -4.2611,-0.797 -5.6364,-0.2046c-1.3753,0.5924 -2.3363,1.7819 -2.8829,3.5686v0c-1.1134,3.6395 0.5467,6.1374 4.9804,7.4937v0c2.5147,0.7693 5.0714,0.8096 7.6702,0.1211c2.5988,-0.6885 5.9999,-2.3437 10.2033,-4.9655v0c5.3674,-3.3513 9.9355,-5.3912 13.7045,-6.1198c3.7689,-0.7285 7.8372,-0.4248 12.2047,0.9113v0c5.6911,1.7409 9.6284,4.4832 11.8121,8.2267c2.1837,3.7435 2.4556,8.2953 0.8158,13.6553z"></path><path d="M140.4358,235.8157l-60.3207,-40.3283l9.2271,-14.1203c3.1137,-4.7649 6.7128,-7.4935 10.7974,-8.186c4.0846,-0.6925 8.5684,0.5936 13.4515,3.8583v0l5.9459,3.9752c4.8831,3.2647 7.8101,6.9332 8.781,11.0056c0.9709,4.0724 -0.1005,8.491 -3.2142,13.2559v0l-2.9618,4.5324l24.5592,16.4194zM113.5247,204.0473l2.9618,-4.5324c1.0252,-1.5689 1.3633,-3.0337 1.0142,-4.3942c-0.3491,-1.3606 -1.5577,-2.7322 -3.6259,-4.1149v0l-7.1523,-4.7818c-2.0681,-1.3827 -3.7894,-1.9698 -5.1637,-1.7615c-1.3743,0.2083 -2.5741,1.097 -3.5994,2.6659v0l-2.9618,4.5324z"></path><path d="M197.8529,169.8169c-4.3244,3.6443 -8.6558,5.1898 -12.9943,4.6365c-4.3385,-0.5533 -8.373,-3.1016 -12.1035,-7.6448v0l-24.5145,-29.8555c-3.7305,-4.5432 -5.4693,-9.0261 -5.2165,-13.4487c0.2528,-4.4226 2.5413,-8.4561 6.8657,-12.1004v0c4.3244,-3.6443 8.6558,-5.1898 12.9943,-4.6365c4.3385,0.5533 8.373,3.1016 12.1035,7.6448v0l24.5145,29.8555c3.7305,4.5432 5.4693,9.0261 5.2165,13.4487c-0.2528,4.4226 -2.5413,8.4561 -6.8657,12.1004zM191.1914,161.704c3.0431,-2.5645 3.0324,-5.7128 -0.0319,-9.4447v0l-25.4471,-30.9913c-3.0643,-3.7319 -6.118,-4.3156 -9.1611,-1.7511v0c-3.0431,2.5645 -3.0324,5.7128 0.0319,9.4447v0l25.4471,30.9913c3.0643,3.7319 6.118,4.3156 9.1611,1.7511z"></path><path d="M245.0758,136.6379l-28.0702,-67.0377l15.7876,-6.4629c5.4885,-2.2468 10.0199,-2.6247 13.5942,-1.1337c3.5742,1.491 6.4574,4.8542 8.6496,10.0895v0l1.7243,4.118c2.914,6.9592 2.434,12.3161 -1.4398,16.0708v0l0.0802,0.1915c2.9036,-0.2912 5.3827,0.5263 7.4373,2.4524c2.0546,1.9261 3.9106,4.8684 5.5681,8.8268v0l4.9323,11.7795c0.802,1.9154 1.5149,3.4372 2.1386,4.5655c0.6237,1.1283 1.4345,2.1613 2.4322,3.099v0l-10.8479,4.4408c-0.8419,-0.9268 -1.5279,-1.8426 -2.0581,-2.7474c-0.5301,-0.9048 -1.3165,-2.6022 -2.3591,-5.0922v0l-5.1328,-12.2583c-1.2832,-3.0646 -2.6792,-4.9985 -4.188,-5.8019c-1.5088,-0.8033 -3.49,-0.7028 -5.9437,0.3017v0l-3.6805,1.5067l12.0301,28.7305zM239.6899,93.9692l3.8743,-1.586c2.1308,-0.8723 3.5017,-2.0692 4.1127,-3.5907c0.6109,-1.5215 0.3818,-3.5592 -0.6876,-6.113v0l-2.1654,-5.1715c-1.0159,-2.4261 -2.1869,-4.0034 -3.5131,-4.732c-1.3262,-0.7285 -2.9255,-0.7095 -4.7981,0.0571v0l-4.8428,1.9825z"></path><polygon points="315.3487,114.2397 308.201,42.1798 339.4502,39.1524 340.4713,49.4467 320.6802,51.364 322.5692,70.4084 338.298,68.8846 339.3191,79.1789 323.5903,80.7027 325.7857,102.8354 345.5768,100.918 346.5979,111.2123"></polygon><path d="M399.3751,116.9393c-5.3794,-1.0309 -9.159,-3.3649 -11.3389,-7.0022c-2.1799,-3.6373 -2.731,-8.3599 -1.6531,-14.1678v0l0.7609,-4.0997l10.4898,2.0102l-0.913,4.9197c-0.8623,4.6463 0.6229,7.3368 4.4557,8.0713v0c1.8828,0.3608 3.4163,0.0709 4.6005,-0.8697c1.1842,-0.9406 2.011,-2.6749 2.4802,-5.2031v0c0.558,-3.0065 0.3769,-5.7831 -0.5431,-8.3298c-0.92,-2.5467 -2.8976,-5.7737 -5.9326,-9.681v0c-3.8116,-4.9759 -6.3176,-9.2949 -7.5182,-12.9567c-1.2005,-3.6619 -1.414,-7.5768 -0.6405,-11.7448v0c1.0525,-5.6713 3.2794,-9.7908 6.6805,-12.3585c3.4012,-2.5677 7.7914,-3.3362 13.1708,-2.3053v0c5.3121,1.018 9.0413,3.3424 11.1877,6.9732c2.1463,3.6308 2.6805,8.3502 1.6027,14.1581v0l-0.5516,2.9723l-10.4898,-2.0102l0.6848,-3.6897c0.4565,-2.4598 0.3187,-4.3437 -0.4135,-5.6515c-0.7322,-1.3078 -2.006,-2.1357 -3.8215,-2.4836v0c-3.6983,-0.7087 -5.9723,1.2259 -6.8219,5.8039v0c-0.4819,2.5965 -0.2428,5.1542 0.7172,7.6732c0.96,2.519 2.9575,5.7321 5.9926,9.6394v0c3.8788,4.9888 6.3817,9.3248 7.5087,13.008c1.1269,3.6831 1.2719,7.7795 0.435,12.2892v0c-1.0906,5.8763 -3.3564,10.1121 -6.7975,12.7076c-3.4411,2.5955 -7.885,3.3713 -13.3316,2.3276z"></path><path d="M486.5333,149.8844l43.3746,-58.8962l13.873,10.3555c4.7358,3.535 7.3742,7.2213 7.9154,11.0589c0.5412,3.8376 -0.8819,8.0561 -4.2693,12.6556v0l-1.735,2.3558c-2.2307,3.0289 -4.5358,5.1331 -6.9153,6.3124c-2.3795,1.1793 -4.882,1.4411 -7.5073,0.7853v0l-0.1239,0.1683c3.412,4.9808 2.6807,10.7806 -2.1938,17.3994v0l-3.7178,5.0482c-3.346,4.5434 -7.0808,7.1233 -11.2043,7.7397c-4.1235,0.6164 -8.4696,-0.7806 -13.0382,-4.1908v0zM521.4412,121.8295l3.5936,2.6824c1.8386,1.3724 3.5687,1.925 5.1902,1.6576c1.6215,-0.2673 3.2585,-1.5228 4.9109,-3.7665v0l2.4166,-3.2814c1.5698,-2.1315 2.3297,-3.9547 2.2798,-5.4697c-0.0499,-1.515 -0.8827,-2.8755 -2.4984,-4.0816v0l-4.4293,-3.3063zM501.9226,148.3328l5.265,3.9301c1.6157,1.2061 3.1337,1.6655 4.554,1.3783c1.4203,-0.2872 2.9153,-1.4965 4.4851,-3.628v0l3.7798,-5.1324c1.9828,-2.6924 2.8967,-4.9005 2.7416,-6.6244c-0.1551,-1.7239 -1.2912,-3.376 -3.4084,-4.9564v0l-4.095,-3.0568z"></path><path d="M541.7822,197.527l65.2284,-33.5846l9.0147,12.6933l-51.4341,53.008l-6.6552,-9.3709l10.3729,-10.3012l-0.1667,0.1237l-7.5627,-10.6488l-12.6263,6.7699zM569.2825,194.6781l5.9896,8.4338l25.8677,-25.5751l-0.121,-0.1704z"></path><path d="M581.8856,264.1081l69.1366,-23.0807l5.3925,16.0452c1.8747,5.5781 1.9417,10.081 0.201,13.5086c-1.7407,3.4276 -5.3107,6.0427 -10.7099,7.8452v0l-4.247,1.4178c-7.177,2.396 -12.5143,1.5502 -16.0118,-2.5373v0l-0.1975,0.0659c0.0921,2.8888 -0.8981,5.2812 -2.9704,7.1773c-2.0723,1.8961 -5.1497,3.5256 -9.232,4.8885v0l-12.1483,4.0556c-1.9753,0.6594 -3.55,1.2581 -4.724,1.796c-1.174,0.5379 -2.2654,1.2672 -3.2742,2.1879v0l-3.7053,-11.0249c0.987,-0.7674 1.9523,-1.3816 2.8959,-1.8426c0.9436,-0.461 2.6993,-1.1201 5.2672,-1.9774v0l12.6421,-4.2205c3.1605,-1.0551 5.1954,-2.3001 6.1046,-3.7349c0.9092,-1.4348 0.9447,-3.3991 0.1066,-5.8929v0l-1.2571,-3.7406l-29.63,9.8917zM625.0314,261.7472l1.3233,3.9375c0.7278,2.1656 1.8334,3.603 3.3166,4.3121c1.4833,0.7091 3.5418,0.624 6.1756,-0.2552v0l5.3334,-1.7805c2.5021,-0.8353 4.1639,-1.8828 4.9855,-3.1424c0.8216,-1.2596 0.9126,-2.841 0.273,-4.7441v0l-1.6541,-4.9219z"></path></g><path d="M131.3953,462.0487l-60.817,23.4416l0.7648,2.0216l63.8212,-24.5995l-1.1815,-3.1229l-66.5202,7.5064l54.5401,-39.1729l-1.1815,-3.1229l-63.8212,24.5996l0.6963,1.8405l60.817,-23.4416l-54.6162,39.2887l0.8733,2.3082zM158.5299,501.2435l-1.349,-1.6819l-39.9775,32.6696c-7.2743,5.9446 -11.156,13.9372 -4.582,22.1332c6.5035,8.1081 15.0564,5.9391 22.3307,-0.0054l39.9775,-32.6696l-1.2886,-1.6066l-40.0521,32.7306c-6.3665,5.2028 -13.7423,7.4278 -19.4505,0.3113c-5.7182,-7.1291 -2.0271,-13.9479 4.3394,-19.1506zM217.7015,558.1606c-8.1817,-5.5471 -15.508,-2.2659 -21.1503,6.0081c-10.6769,15.6569 11.1972,30.1485 1.4093,44.5018c-4.708,6.904 -11.0712,10.4818 -18.4646,5.3451c-7.3934,-5.1367 -6.3413,-12.4044 -1.6333,-19.3084l1.9322,-2.8334l-1.6869,-1.172l-1.8778,2.7536c-5.3702,7.875 -6.409,16.348 2.1046,22.2629c8.6058,5.979 16.0759,1.9743 21.4461,-5.9007c10.5136,-15.4175 -11.3151,-29.9756 -1.4093,-44.5018c4.5991,-6.7443 10.8999,-10.6008 18.3064,-5.455c7.3143,5.0817 5.9408,12.4791 1.3416,19.2234l-0.7711,1.1307l1.766,1.2269l0.7166,-1.0509c5.3158,-7.7952 6.4971,-16.3063 -2.0297,-22.2304zM281.4624,627.5289l-10.1994,31.8716l2.0553,0.6701l20.9988,-65.618l-2.0553,-0.6701l-10.1994,31.8716l-23.4915,-7.6592l10.1994,-31.8716l-2.0401,-0.6652l-20.9988,65.618l2.0401,0.6651l10.1994,-31.8716zM335.7647,601.4684l-1.3321,68.9432l2.1595,0.0425l0.6146,-31.8075l8.3819,0.165c8.8778,0.1748 14.8892,2.942 14.6929,13.0978l-0.2093,10.8339c-0.0571,2.9547 0.1719,6.012 1.4897,8.2023l2.3514,0.0463c-1.5258,-2.1944 -1.7488,-5.5584 -1.6977,-8.2064l0.2093,-10.8339c0.1466,-7.5886 -2.9875,-12.6736 -10.5629,-14.0018c7.529,-1.2409 10.9454,-5.7931 11.1092,-14.2697l0.1198,-6.2c0.1828,-9.4615 -3.6042,-15.5447 -13.7617,-15.7446zM337.2466,636.5799l0.6377,-33.0023l11.3092,0.2226c8.7818,0.1729 11.9123,5.4516 11.7504,13.8314l-0.1217,6.2969c-0.2056,10.6402 -5.724,13.0028 -15.1937,12.8164zM420.7537,646.808c2.5761,9.3005 8.6081,15.6638 18.5618,12.8549c10.1541,-2.8654 12.0265,-11.4594 9.4504,-20.7599l-9.3565,-33.7803c-2.5761,-9.3005 -8.5969,-15.6837 -18.751,-12.8183c-9.9537,2.8089 -11.8373,11.4228 -9.2612,20.7232zM413.4514,612.3474c-2.2616,-8.1651 -0.9997,-15.6645 7.7368,-18.1299c8.8443,-2.4959 13.869,3.2295 16.1306,11.3946l9.4082,33.9669c2.2616,8.1651 0.9072,15.6906 -7.9371,18.1865c-8.7365,2.4654 -13.6687,-3.286 -15.9303,-11.4511zM500.7442,615.543c5.1193,8.1584 12.6972,12.5085 21.4421,6.9178c8.9071,-5.6944 8.2495,-14.4686 3.1302,-22.627l-18.5939,-29.6321c-5.1193,-8.1584 -12.7057,-12.5221 -21.6128,-6.8277c-8.7449,5.5907 -8.0788,14.3786 -2.9595,22.5369zM483.91,584.6712c-4.4944,-7.1624 -5.411,-14.7197 2.2526,-19.6191c7.7447,-4.9513 14.203,-0.9368 18.6973,6.2257l18.6967,29.7958c4.4944,7.1624 5.3299,14.7716 -2.4148,19.7228c-7.6636,4.8994 -14.0408,0.8331 -18.5352,-6.3294zM557.0056,500.5534l50.1982,41.8395l1.3651,-1.6686l-52.6779,-43.9063l-2.1087,2.5776l39.2674,54.7191l-60.6501,-28.5817l-2.1087,2.5776l52.6779,43.9063l1.2428,-1.5192l-50.1982,-41.8395l60.7975,28.5789l1.5586,-1.9052zM581.385,445.8497c-3.4967,9.3013 1.331,15.7593 10.5945,19.4294c17.529,6.9448 26.5505,-17.8457 42.62,-11.4792c7.7294,3.0623 12.6308,8.4912 9.3455,16.9395c-3.2794,8.4332 -10.5307,9.0474 -18.2602,5.9851l-3.1722,-1.2568l-0.7482,1.9242l3.0828,1.2214c8.8166,3.493 17.2278,2.5924 21.0041,-7.1186c3.8172,-9.8162 -1.7412,-16.2514 -10.5579,-19.7445c-17.2609,-6.8386 -26.3569,17.9224 -42.62,11.4792c-7.5507,-2.9915 -12.7009,-8.3108 -9.4157,-16.7591c3.2443,-8.343 10.6936,-8.6706 18.2443,-5.6791l1.2659,0.5015l0.7833,-2.0144l-1.1766,-0.4661c-8.7273,-3.4577 -17.2076,-2.6885 -20.9897,7.0375z" id="mushrooms 1 1" fill="#ffffff" stroke="#ffffff" stroke-width="3" stroke-dasharray="0,0"></path></g><g id="dots" fill="#ffffff" stroke="#000000" stroke-width="0" stroke-linecap="round" stroke-linejoin="round" stroke-dasharray=""><path d="M65,365.5c0,-6.9036 5.5964,-12.5 12.5,-12.5c6.9036,0 12.5,5.5964 12.5,12.5c0,6.9036 -5.5964,12.5 -12.5,12.5c-6.9036,0 -12.5,-5.5964 -12.5,-12.5z" id="Path 1 1"></path><path d="M620,365.5c0,-6.9036 5.5964,-12.5 12.5,-12.5c6.9036,0 12.5,5.5964 12.5,12.5c0,6.9036 -5.5964,12.5 -12.5,12.5c-6.9036,0 -12.5,-5.5964 -12.5,-12.5z" id="Path 1 1"></path></g><g id="shrooms" stroke-linecap="butt" stroke-linejoin="miter" stroke-dasharray=""><path d="M143,355c0,-117.0844 94.9156,-212 212,-212c117.0844,0 212,94.9156 212,212c0,117.0844 -94.9156,212 -212,212c-117.0844,0 -212,-94.9156 -212,-212z" fill="#ffffff" stroke="#000000" stroke-width="8"></path><path d="M167.8758,453.9165c35.9365,67.3354 106.307,113.0835 187.236,113.0835c76.8245,0 144.1341,-41.2252 181.5055,-103.0077c-49.0658,-20.1447 -119.8552,-32.7923 -198.5628,-32.7923c-64.6064,0 -123.8778,8.5217 -170.1787,22.7166z" fill="#543d30" stroke="#000000" stroke-width="3" style="mix-blend-mode: multiply"></path><g><path d="M432.8533,460.2947c-4.7451,4.6213 -6.1686,9.6214 -6.475,12.7941c-0.9747,10.0919 4.7363,19.9944 22.1149,20.6716c9.828,0.383 18.0687,-1.9414 24.0805,-11.6865c18.0137,-33.2361 23.5278,-104.2871 23.5278,-106.557c0,-8.3991 -4.753,-13.0629 -12.6035,-13.0629c-6.1115,0 -8.0348,3.0583 -10.0434,8.8491c-1.4767,52.9583 -40.6012,88.9915 -40.6012,88.9915z" fill="#fcefdc" stroke="#000000" stroke-width="4"></path><path d="M451.2319,418.3206l7.0386,-16.2886l39.0585,1.1517l4.6951,15.5528c-6.4684,-1.2685 -12.9197,-1.3239 -19.354,-0.1661l-7.9773,-5.5591l-3.9905,5.4687l-7.8491,-2.6159c-4.1106,-0.1747 -7.9844,0.6442 -11.6213,2.4565z" fill="#fcefdc" stroke="#000000" stroke-width="4"></path><path d="M443.3792,400.5522c24.1727,5.4615 49.5163,5.4615 76.0308,0c13.0769,-2.6936 24.1126,-11.55 24.1126,-25.7977c0,-9.7892 -5.1527,-19.1217 -12.7985,-23.2117c-7.4565,-3.9888 -13.7479,-9.972 -20.4498,-17.8983c-7.4818,-8.8488 -16.4887,-15.5079 -28.4836,-15.5079c-10.5739,0 -20.7397,3.9623 -26.8611,12.1562c-7.6012,10.1747 -17.1789,19.5049 -24.6007,24.297c-6.472,4.1788 -10.4107,12.1669 -10.4107,20.8619c0,13.8626 10.7834,22.2361 23.4609,25.1005z" fill="#800020" stroke="#000000" stroke-width="4"></path><path d="M461.2233,343.3963c-0.4075,-4.2548 2.7186,-8.1028 6.9825,-8.5946c4.2639,-0.4918 8.0508,2.5588 8.4583,6.8136c0.4075,4.2548 -2.7187,8.1028 -6.9825,8.5945c-4.2638,0.4918 -8.0507,-2.5588 -8.4582,-6.8136z" fill="#ffffff" stroke="none" stroke-width="1"></path><path d="M453.9651,365.0194c-0.3152,-3.3091 2.1179,-6.3035 5.4344,-6.6881c3.3165,-0.3846 6.2606,1.9861 6.5757,5.2951c0.3152,3.3091 -2.1179,6.3034 -5.4344,6.6881c-3.3165,0.3846 -6.2605,-1.986 -6.5757,-5.2951z" fill="#ffffff" stroke="none" stroke-width="1"></path><path d="M461.2092,387.8612c-0.2365,-2.3651 1.4913,-4.4945 3.8591,-4.7561c2.3678,-0.2616 4.479,1.4437 4.7155,3.8088c0.2365,2.3651 -1.4913,4.4945 -3.8591,4.7561c-2.3678,0.2616 -4.479,-1.4437 -4.7155,-3.8088z" fill="#ffffff" stroke="none" stroke-width="1"></path><path d="M437.8637,375.631c-0.2365,-2.3651 1.4913,-4.4945 3.8591,-4.7561c2.3678,-0.2616 4.479,1.4437 4.7155,3.8088c0.2365,2.3651 -1.4913,4.4945 -3.8591,4.7561c-2.3678,0.2616 -4.479,-1.4437 -4.7155,-3.8089z" fill="#ffffff" stroke="none" stroke-width="1"></path></g><g><path d="M213.9378,470.9484c1.2963,12.5781 13.2228,16.3723 28.8514,14.6971c15.6286,-1.6752 29.0411,-8.1855 27.7448,-20.7636c0,0 1.651,-8.8782 -16.7675,-42.108c-11.3567,-20.4892 -5.1617,-33.268 -3.5831,-47.7098c0.8172,-7.4758 -0.0772,-12.0802 -0.0772,-12.0802c-0.8333,-8.0859 -9.6535,-13.7678 -19.7005,-12.6909c-7.8481,0.8412 -14.1233,5.5577 -16.0969,11.436c0,0 -2.8261,5.3949 0.7996,18.5977c3.215,11.7073 5.9415,29.4303 3.7929,41.9936c-6.9353,40.7025 -4.9634,48.6281 -4.9634,48.6281z" fill="#fcefdc" stroke="#000000" stroke-width="4"></path><path d="M175.0881,376.9798c-2.5674,-21.2042 19.6367,-52.8588 50.5021,-56.1672c30.8654,-3.3084 59.0377,22.9464 61.2714,44.1864c3.1453,29.9081 -22.2232,34.9248 -53.0886,38.2332c-30.8654,3.3084 -55.0703,3.601 -58.6849,-26.2524z" fill="#800020" stroke="#000000" stroke-width="4"></path><path d="M210.6361,340.9802c-0.4782,-4.9926 3.19,-9.5076 8.1931,-10.0847c5.0031,-0.5771 9.4466,3.0024 9.9248,7.995c0.4782,4.9926 -3.19,9.5076 -8.1931,10.0847c-5.0031,0.5771 -9.4466,-3.0024 -9.9248,-7.995z" fill="#ffffff" stroke="none" stroke-width="1"></path><path d="M212.064,367.6773c-0.2498,-2.4977 1.5748,-4.7464 4.0753,-5.0226c2.5005,-0.2762 4.73,1.5246 4.9798,4.0223c0.2498,2.4977 -1.5748,4.7464 -4.0753,5.0226c-2.5005,0.2762 -4.73,-1.5246 -4.9798,-4.0223z" fill="#ffffff" stroke="none" stroke-width="1"></path><path d="M226.9383,438.1753c-3.0041,12.2545 -2.9765,19.2633 -3.0041,29.4055c0,4.2944 2.4046,6.92 4.0179,7.6099c3.5892,1.538 6.9374,2.221 10.0448,2.0488c-5.5783,-4.4221 -10.2613,-14.5552 -11.0587,-39.0642z" fill="#000000" stroke="none" stroke-width="1"></path><path d="M189.3556,358.3514c-0.3497,-3.4968 2.2047,-6.6449 5.7054,-7.0317c3.5007,-0.3867 6.622,2.1344 6.9717,5.6312c0.3497,3.4968 -2.2047,6.645 -5.7054,7.0317c-3.5007,0.3867 -6.622,-2.1344 -6.9717,-5.6312z" fill="#ffffff" stroke="none" stroke-width="1"></path><path d="M189.3446,384.859c-0.2391,-2.4963 1.595,-4.7538 4.0966,-5.0423c2.5016,-0.2885 4.7233,1.5012 4.9624,3.9975c0.2391,2.4963 -1.595,4.7538 -4.0966,5.0423c-2.5016,0.2885 -4.7233,-1.5012 -4.9624,-3.9975z" fill="#ffffff" stroke="none" stroke-width="1"></path></g><g><path d="M237.0084,258.689c0.2715,-1.4693 0.5905,-2.9531 0.9561,-4.4483c0.3551,-1.4521 0.7542,-2.9151 1.1965,-4.386c11.8694,-39.4769 54.8393,-84.7523 113.4163,-82.6637c72.0293,2.5683 110.7064,57.0154 112.7364,91.498c3.8218,64.919 -52.8777,52.0347 -115.9225,52.0347c-63.0448,0 -124.1885,11.8534 -112.3828,-52.0347z" fill="#800020" stroke="#000000" stroke-width="4"></path><path d="M258.8801,295.166c0,-14.1393 38.6855,-25.4831 93.4317,-25.4831c54.7462,0 91.4168,12.0805 91.4168,26.2198c0,14.1392 -36.6706,11.0509 -91.4168,11.0509c-54.7462,0 -93.4317,2.3516 -93.4317,-11.7877z" data-paper-data="{&quot;strokeAlign&quot;:&quot;outer&quot;}" fill="url(#color-1)" stroke="#000000" stroke-width="4"></path><path d="M332.5446,283.4902c-3.4015,2.4019 -5.4663,1.9641 -7.2425,0.9867c-6.6504,-3.6594 -9.9472,-3.575 -9.9472,-3.575c0,0 6.5955,2.492 9.6263,7.8206c1.089,1.9146 -0.6674,2.8304 -2.0392,2.198c-13.718,-7.8587 -29.1642,-6.3492 -29.1642,-6.3492c9.9314,1.5102 20.3362,3.6387 26.4207,8.3968c0.9651,0.7547 2.1516,1.4152 1.74,3.2622c-0.3412,1.5312 -2.3891,1.1177 -3.1118,0.9833c-26.1184,-4.8549 -39.7822,1.4152 -39.7822,1.4152c0,0 24.6924,-3.7942 41.154,5.2227c0.5301,0.2903 1.8783,3.2684 -2.1905,3.2684c-2.0598,0 0.7031,4.5958 3.5623,5.1266c12.3263,2.2882 49.0149,2.2011 61.731,-1.7175c2.6683,-0.8223 3.5976,-3.1915 2.2448,-3.4091c-2.4484,-0.3937 -3.1985,-1.3824 -3.1613,-2.8304c0.037,-1.4431 0.6244,-2.8021 0.9166,-3.3634c4.8792,-9.3733 42.5732,-3.4074 42.5732,-3.4074c0,0 -24.5032,-7.8457 -41.2014,-2.4116c-2.0747,0.6912 -2.6562,-2.1249 -1.3718,-3.5543c4.6367,-5.16 25.1526,-4.817 25.1526,-4.817c0,0 -17.5255,-2.8104 -26.5244,0.5715c-3.5918,0.5907 -5.6641,-0.9696 -4.9218,-2.1619c2.1782,-3.4989 11.6978,-4.5954 11.6978,-4.5954c0,0 -1.9121,-1.7339 -13.1608,1.0965c-0.6684,0.1682 -1.3412,0.6353 -3.9782,0.5483c-1.4243,-0.047 -4.2526,-0.5483 -6.0985,-0.5483c-10.1162,0 -27.6473,-1.8817 -32.9232,1.8437z" fill="#000000" stroke="none" stroke-width="1"></path><path d="M376.3374,346.1341c-4.505,20.5728 -13.6162,40.5364 4.4248,93.3694c18.7246,52.1765 16.8947,69.7158 16.8947,69.7158c0,18.3306 -23.7827,30.1287 -46.9924,30.1287c-23.2096,0 -41.2796,-11.8632 -42.837,-33.07c0,0 -4.049,-18.1209 17.1305,-94.7878c6.2293,-36.9512 4.392,-50.9712 1.4419,-68.3431" fill="#fcefdc" stroke="#000000" stroke-width="4"></path><path d="M369.9559,357.4371l2.9439,-4.8326l10.2241,3.3336c0,0 -3.8965,-10.8622 -4.6311,-17.6014c-0.9516,-8.7305 0.9394,-30.5823 0.9394,-30.5823v0c1.0483,-7.2272 0.6511,-11.5903 0.6511,-11.5903c0,-11.784 -11.82,-16.0653 -26.7405,-16.0653c-11.655,0 -22.3482,1.5726 -25.6505,8.7256c0,0 -3.59,5.3042 -2.6225,18.93v0c0,0 1.2669,16.8206 -0.4437,25.5533c-1.9484,9.9467 -12.187,30.6768 -12.187,30.6768l14.3852,-4.2707l3.1375,1.9591c5.2517,4.2962 5.6344,1.8464 8.3838,0.7182l10.3365,-8.9185l7.0706,2.7085c3.0359,1.163 6.2699,1.6748 9.5042,1.504z" fill="#fcefdc" stroke="#000000" stroke-width="4"></path><path d="M344.9458,356.6965c0.3739,-7.5202 1.9205,-16.553 4.6397,-27.0985c-0.5422,11.9575 0.0308,19.6479 1.7188,23.071" fill="#000000" stroke="#000000" stroke-width="0"></path><path d="M322.252,359.9929c1.4673,-4.8812 3.78,-10.28 6.9382,-16.1962c-1.5593,6.8577 -1.9717,11.6923 -1.2371,14.5037" fill="#000000" stroke="none" stroke-width="0"></path><path d="M312.4392,209.0864c0,-5.6237 4.5115,-10.1825 10.0767,-10.1825c5.5652,0 10.0767,4.5589 10.0767,10.1825c0,5.6237 -4.5115,10.1825 -10.0767,10.1825c-5.5652,0 -10.0767,-4.5589 -10.0767,-10.1825z" fill="#ffffff" stroke="none" stroke-width="1"></path><path d="M257.9118,258.333c0,-3.5787 2.8709,-6.4798 6.4124,-6.4798c3.5415,0 6.4124,2.9011 6.4124,6.4798c0,3.5787 -2.871,6.4798 -6.4124,6.4798c-3.5415,0 -6.4124,-2.9011 -6.4124,-6.4798z" fill="#ffffff" stroke="none" stroke-width="1"></path><path d="M277.5023,219.9522c0,-3.5787 2.8709,-6.4798 6.4124,-6.4798c3.5415,0 6.4124,2.9011 6.4124,6.4798c0,3.5787 -2.8709,6.4798 -6.4124,6.4798c-3.5415,0 -6.4124,-2.9011 -6.4124,-6.4798z" fill="#ffffff" stroke="none" stroke-width="1"></path><path d="M293.7502,247.8092c0,-2.5562 2.0507,-4.6284 4.5803,-4.6284c2.5296,0 4.5803,2.0722 4.5803,4.6284c0,2.5562 -2.0507,4.6284 -4.5803,4.6284c-2.5296,0 -4.5803,-2.0722 -4.5803,-4.6284z" fill="#ffffff" stroke="none" stroke-width="1"></path><path d="M336.7349,184.7779c-0.2514,-2.5405 1.5852,-4.8277 4.1021,-5.1087c2.5169,-0.281 4.7611,1.5507 5.0125,4.0912c0.2514,2.5405 -1.5852,4.8277 -4.1021,5.1087c-2.5169,0.281 -4.7611,-1.5508 -5.0125,-4.0913z" fill="#ffffff" stroke="none" stroke-width="1"></path><path d="M324.7588,442.8136c-6.9591,25.3711 -8.6681,44.3613 -7.8537,62.4676c0.1629,9.4647 4.4372,15.2996 6.6781,17.6948c4.2349,4.5266 8.3775,5.4041 12.4987,5.1438c-12.8245,-11.1107 -16.7619,-40.4131 -11.3231,-85.3063z" fill="#000000" stroke="none" stroke-width="1"></path><path d="M333.9542,476.1243c-2.6139,13.589 -1.409,26.9933 3.0544,41.3668c5.1031,8.5192 10.9602,13.397 18.1316,13.4795c-12.0678,-8.6662 -19.1298,-26.9483 -21.186,-54.8463z" fill="#000000" stroke="none" stroke-width="1"></path></g></g></g></svg>